<?xml version="1.0" encoding="UTF-8"?>
<svg width="12px" height="12px" viewBox="0 0 12 12" version="1.1" xmlns="http://www.w3.org/2000/svg" xmlns:xlink="http://www.w3.org/1999/xlink">
    <!-- Generator: Sketch 51 (57462) - http://www.bohemiancoding.com/sketch -->
    <title>Icon/Area</title>
    <desc>Created with Sketch.</desc>
    <defs></defs>
    <g id="Icon/Area" stroke="none" stroke-width="1" fill="none" fill-rule="evenodd">
        <path d="M11.7391304,0 L1.82608696,0 L0.260869565,0 C0.116869565,0 0,0.116869565 0,0.260869565 L0,1.82608696 L0,11.7391304 C0,11.8831304 0.116869565,12 0.260869565,12 L1.82608696,12 C1.97008696,12 2.08695652,11.8831304 2.08695652,11.7391304 L2.08695652,11.4782609 L9.65217391,11.4782609 C9.72130435,11.4782609 9.78782609,11.4508696 9.8366087,11.4018261 L11.4018261,9.8366087 C11.4508696,9.78782609 11.4782609,9.72130435 11.4782609,9.65217391 L11.4782609,2.08695652 L11.7391304,2.08695652 C11.8831304,2.08695652 12,1.97008696 12,1.82608696 L12,0.260869565 C12,0.116869565 11.8831304,0 11.7391304,0 Z M0.52173913,0.52173913 L1.56521739,0.52173913 L1.56521739,1.56521739 L0.52173913,1.56521739 L0.52173913,0.52173913 Z M1.56521739,11.4782609 L0.52173913,11.4782609 L0.52173913,2.08695652 L1.56521739,2.08695652 L1.56521739,11.4782609 Z M9.54417391,10.9565217 L9.39130435,10.9565217 L9.39130435,9.39130435 L10.9565217,9.39130435 L10.9565217,9.54417391 L9.54417391,10.9565217 Z M10.9565217,8.86956522 L9.13043478,8.86956522 C8.98643478,8.86956522 8.86956522,8.98643478 8.86956522,9.13043478 L8.86956522,10.9565217 L2.08695652,10.9565217 L2.08695652,6.26086957 L3.39130435,6.26086957 C3.53530435,6.26086957 3.65217391,6.144 3.65217391,6 C3.65217391,5.856 3.53530435,5.73913043 3.39130435,5.73913043 L2.08695652,5.73913043 L2.08695652,2.08695652 L5.73913043,2.08695652 L5.73913043,3.39130435 C5.73913043,3.53530435 5.856,3.65217391 6,3.65217391 C6.144,3.65217391 6.26086957,3.53530435 6.26086957,3.39130435 L6.26086957,2.08695652 L10.9565217,2.08695652 L10.9565217,8.86956522 Z M11.4782609,1.56521739 L2.08695652,1.56521739 L2.08695652,0.52173913 L11.4782609,0.52173913 L11.4782609,1.56521739 Z" id="Shape" fill="#4A4A4A" fill-rule="nonzero"></path>
        <path d="M6,4.69565217 C5.856,4.69565217 5.73913043,4.81252174 5.73913043,4.95652174 L5.73913043,5.73913043 L4.95652174,5.73913043 C4.81252174,5.73913043 4.69565217,5.856 4.69565217,6 C4.69565217,6.144 4.81252174,6.26086957 4.95652174,6.26086957 L6,6.26086957 C6.144,6.26086957 6.26086957,6.144 6.26086957,6 L6.26086957,4.95652174 C6.26086957,4.81252174 6.144,4.69565217 6,4.69565217 Z" id="Shape" fill="#4A4A4A" fill-rule="nonzero"></path>
    </g>
</svg>