<svg xmlns="http://www.w3.org/2000/svg" xmlns:xlink="http://www.w3.org/1999/xlink" width="12" height="12" viewBox="0 0 12 12">
    <defs>
        <path id="a" d="M5.19 2.732H6V8.98c0 .55-.133 1.055-.399 1.517a2.98 2.98 0 0 1-1.085 1.098c-.457.27-.956.405-1.496.405s-1.042-.135-1.504-.405a3.067 3.067 0 0 1-1.104-1.098A2.914 2.914 0 0 1 0 8.98V2.196c0-.392.1-.756.3-1.091C.502.769.77.5 1.106.3 1.44.1 1.804 0 2.196 0s.754.098 1.085.294c.331.196.595.464.79.804.197.34.295.706.295 1.098v5.712a1.374 1.374 0 0 1-.673 1.176c-.205.123-.43.184-.673.184a1.36 1.36 0 0 1-.687-.183 1.394 1.394 0 0 1-.51-.497 1.29 1.29 0 0 1-.189-.68V2.732h.824v5.176a.5.5 0 0 0 .163.386c.109.1.242.15.399.15.156 0 .285-.05.385-.15.1-.1.15-.229.15-.386V2.196a1.36 1.36 0 0 0-.182-.686A1.394 1.394 0 0 0 2.876 1a1.29 1.29 0 0 0-.68-.19c-.244 0-.47.064-.68.19-.209.126-.377.296-.503.51-.126.213-.19.442-.19.686V8.98c0 .393.1.759.301 1.098.2.34.469.61.804.81.336.201.7.302 1.092.302.392 0 .753-.1 1.085-.301.33-.2.594-.47.79-.81A2.16 2.16 0 0 0 5.19 8.98V2.732z"/>
    </defs>
    <g fill="none" fill-rule="evenodd" transform="translate(3)">
        <mask id="b" fill="#fff">
            <use xlink:href="#a"/>
        </mask>
        <use fill="#3487CB" xlink:href="#a"/>
        <g fill="#4A4A4A" mask="url(#b)">
            <rect width="12" height="12" rx="4" transform="translate(-3)"/>
        </g>
    </g>
</svg>
