<?xml version="1.0" encoding="UTF-8"?>
<svg width="12px" height="11px" viewBox="0 0 12 11" version="1.1" xmlns="http://www.w3.org/2000/svg" xmlns:xlink="http://www.w3.org/1999/xlink">
    <!-- Generator: Sketch 50.2 (55047) - http://www.bohemiancoding.com/sketch -->
    <title>camera_alt - material</title>
    <desc>Created with Sketch.</desc>
    <defs></defs>
    <g id="Page-1" stroke="none" stroke-width="1" fill="none" fill-rule="evenodd">
        <g id="Icon/Camera" transform="translate(0.000000, -1.000000)" fill="#4A4A4A">
            <path d="M6.00149316,10.0166664 C6.54970922,10.0166664 7.05463749,9.88201887 7.51629312,9.61271976 C7.97794875,9.34342064 8.34342064,8.97794875 8.61271976,8.51629312 C8.88201887,8.05463749 9.01666641,7.54970922 9.01666641,7.00149316 C9.01666641,6.45327711 8.88201887,5.94834884 8.61271976,5.48669321 C8.34342064,5.02503758 7.97794875,4.65956569 7.51629312,4.39026657 C7.05463749,4.12096745 6.54970922,3.98631992 6.00149316,3.98631992 C5.45327711,3.98631992 4.94834884,4.12096745 4.48669321,4.39026657 C4.02503758,4.65956569 3.65956569,5.02503758 3.39026657,5.48669321 C3.12096745,5.94834884 2.98631992,6.45327711 2.98631992,7.00149316 C2.98631992,7.54970922 3.12096745,8.05463749 3.39026657,8.51629312 C3.65956569,8.97794875 4.02503758,9.34342064 4.48669321,9.61271976 C4.94834884,9.88201887 5.45327711,10.0166664 6.00149316,10.0166664 Z M4.19815988,1 L7.80482645,1 L8.90125308,2.18298663 L10.8199997,2.18298663 C11.1470058,2.18298663 11.4259185,2.30320765 11.6567463,2.54365329 C11.8875742,2.78409893 12.0029863,3.06782053 12.0029863,3.3948266 L12.0029863,10.6081597 C12.0029863,10.9351658 11.8875742,11.2188874 11.6567463,11.459333 C11.4259185,11.6997787 11.1470058,11.8199997 10.8199997,11.8199997 L1.18298663,11.8199997 C0.855980563,11.8199997 0.577067805,11.6997787 0.34623999,11.459333 C0.115412176,11.2188874 0,10.9351658 0,10.6081597 L0,3.3948266 C0,3.06782053 0.115412176,2.78409893 0.34623999,2.54365329 C0.577067805,2.30320765 0.855980563,2.18298663 1.18298663,2.18298663 L3.10173325,2.18298663 L4.19815988,1 Z M4.08274655,7.00149316 C4.08274655,6.65525144 4.16930568,6.33546354 4.34242654,6.04211986 C4.5155474,5.74877618 4.74877618,5.5155474 5.04211986,5.34242654 C5.33546354,5.16930568 5.65525144,5.08274655 6.00149316,5.08274655 C6.34773489,5.08274655 6.66752279,5.16930568 6.96086647,5.34242654 C7.25421015,5.5155474 7.48743892,5.74877618 7.66055978,6.04211986 C7.83368064,6.33546354 7.92023978,6.65525144 7.92023978,7.00149316 C7.92023978,7.34773489 7.83368064,7.66752279 7.66055978,7.96086647 C7.48743892,8.25421015 7.25421015,8.48743892 6.96086647,8.66055978 C6.66752279,8.83368064 6.34773489,8.92023978 6.00149316,8.92023978 C5.65525144,8.92023978 5.33546354,8.83368064 5.04211986,8.66055978 C4.74877618,8.48743892 4.5155474,8.25421015 4.34242654,7.96086647 C4.16930568,7.66752279 4.08274655,7.34773489 4.08274655,7.00149316 Z" id="camera_alt---material"></path>
        </g>
    </g>
</svg>