<svg xmlns="http://www.w3.org/2000/svg" xmlns:xlink="http://www.w3.org/1999/xlink" width="12" height="12" viewBox="0 0 12 12">
    <defs>
        <path id="a" d="M6.001 9.017c.549 0 1.054-.135 1.515-.404.462-.27.827-.635 1.097-1.097.269-.461.404-.966.404-1.515 0-.548-.135-1.053-.404-1.514A2.997 2.997 0 0 0 7.516 3.39a2.953 2.953 0 0 0-1.515-.404c-.548 0-1.053.135-1.514.404-.462.27-.827.635-1.097 1.097-.269.461-.404.966-.404 1.514 0 .549.135 1.054.404 1.515.27.462.635.827 1.097 1.097.461.269.966.404 1.514.404zM4.198 0h3.607L8.9 1.183h1.919c.327 0 .606.12.837.36.23.241.346.525.346.852v7.213c0 .327-.115.61-.346.851-.231.24-.51.361-.837.361H1.183c-.327 0-.606-.12-.837-.36A1.188 1.188 0 0 1 0 9.607V2.395c0-.327.115-.61.346-.851.231-.24.51-.361.837-.361h1.919L4.198 0zm-.115 6.001c0-.346.086-.666.26-.959.173-.293.406-.526.7-.7.292-.173.612-.26.958-.26.347 0 .667.087.96.26.293.174.526.407.7.7.173.293.26.613.26.96 0 .346-.087.666-.26.959a1.952 1.952 0 0 1-.7.7c-.293.173-.613.26-.96.26-.346 0-.666-.087-.959-.26a1.952 1.952 0 0 1-.7-.7 1.854 1.854 0 0 1-.26-.96z"/>
    </defs>
    <g fill="none" fill-rule="evenodd" transform="translate(0 1)">
        <mask id="b" fill="#fff">
            <use xlink:href="#a"/>
        </mask>
        <use fill="#4A4A4A" xlink:href="#a"/>
        <g fill="#4A4A4A" mask="url(#b)">
            <rect width="27" height="18" rx="4" transform="translate(-2 -1)"/>
        </g>
    </g>
</svg>
