<svg xmlns="http://www.w3.org/2000/svg" xmlns:xlink="http://www.w3.org/1999/xlink" width="18" height="18" viewBox="0 0 18 18">
    <defs>
        <path id="a" d="M17.696 1.751c.405.374.405.763 0 1.167l-1.494 1.448-2.568-2.568L15.082.304c.404-.405.793-.405 1.167 0l1.447 1.447zm-4.529.467l2.568 2.568-8.264 8.078-2.989.654.654-2.989 8.031-8.311zm1.775 6.817l1.494-1.494v9.385c0 .311-.101.568-.304.77-.202.203-.459.304-.77.304H1.074c-.311 0-.568-.101-.77-.304a1.044 1.044 0 0 1-.304-.77V2.638c0-.311.101-.568.304-.77.202-.203.459-.304.77-.304h9.385L8.965 3.058H2.008c-.343 0-.514.156-.514.467V16.04c0 .311.156.467.467.467h12.56c.28 0 .42-.156.42-.467V9.035z"/>
    </defs>
    <g fill="none" fill-rule="evenodd">
        <mask id="b" fill="#fff">
            <use xlink:href="#a"/>
        </mask>
        <use fill="#7C7C7C" xlink:href="#a"/>
        <g fill="#3487CB" mask="url(#b)">
            <rect width="29" height="21" rx="4" transform="translate(-4.5)"/>
        </g>
    </g>
</svg>
