<svg xmlns="http://www.w3.org/2000/svg" xmlns:xlink="http://www.w3.org/1999/xlink" width="12" height="12" viewBox="0 0 12 12">
    <defs>
        <path id="a" d="M4.788 9.014l5.41-5.408-.852-.88-4.558 4.572L2.654 5.15 1.803 6l2.985 3.014zM6 0a5.9 5.9 0 0 1 3.043.822 5.687 5.687 0 0 1 2.135 2.135A5.9 5.9 0 0 1 12 6a5.9 5.9 0 0 1-.822 3.043 5.687 5.687 0 0 1-2.135 2.135A5.9 5.9 0 0 1 6 12a5.9 5.9 0 0 1-3.043-.822 5.794 5.794 0 0 1-2.135-2.15A5.875 5.875 0 0 1 0 6c0-1.087.274-2.096.822-3.029A5.905 5.905 0 0 1 2.972.822 5.875 5.875 0 0 1 6 0z"/>
    </defs>
    <g fill="none" fill-rule="evenodd">
        <path fill="#9B9B9B" d="M-1050-2054H390V257h-1440z"/>
        <g>
            <mask id="b" fill="#fff">
                <use xlink:href="#a"/>
            </mask>
            <use fill="#3487CB" xlink:href="#a"/>
            <g fill="#3487CB" mask="url(#b)">
                <rect width="20" height="16" rx="4" transform="translate(-2)"/>
            </g>
        </g>
    </g>
</svg>
