<?xml version="1.0" encoding="UTF-8"?>
<svg width="12px" height="12px" viewBox="0 0 12 12" version="1.1" xmlns="http://www.w3.org/2000/svg" xmlns:xlink="http://www.w3.org/1999/xlink">
    <!-- Generator: Sketch 50.2 (55047) - http://www.bohemiancoding.com/sketch -->
    <title>error_outline - material</title>
    <desc>Created with Sketch.</desc>
    <defs></defs>
    <g id="Page-1" stroke="none" stroke-width="1" fill="none" fill-rule="evenodd">
        <g id="Icon/Noti" fill="#4A4A4A">
            <path d="M6,10.8173077 C6.86538894,10.8173077 7.67307317,10.5961561 8.42307692,10.1538462 C9.15384981,9.73076712 9.73076712,9.15384981 10.1538462,8.42307692 C10.5961561,7.67307317 10.8173077,6.86538894 10.8173077,6 C10.8173077,5.13461106 10.5961561,4.32692683 10.1538462,3.57692308 C9.73076712,2.84615019 9.15384981,2.26923288 8.42307692,1.84615385 C7.67307317,1.40384394 6.86538894,1.18269231 6,1.18269231 C5.13461106,1.18269231 4.32692683,1.40384394 3.57692308,1.84615385 C2.84615019,2.26923288 2.26923288,2.84615019 1.84615385,3.57692308 C1.40384394,4.32692683 1.18269231,5.13461106 1.18269231,6 C1.18269231,6.86538894 1.40384394,7.67307317 1.84615385,8.42307692 C2.26923288,9.15384981 2.84615019,9.73076712 3.57692308,10.1538462 C4.32692683,10.5961561 5.13461106,10.8173077 6,10.8173077 Z M6,0 C7.09615933,0 8.11057226,0.274035721 9.04326923,0.822115385 C9.9471199,1.34134875 10.6586513,2.0528801 11.1778846,2.95673077 C11.7259643,3.88942774 12,4.90384067 12,6 C12,7.09615933 11.7259643,8.11057226 11.1778846,9.04326923 C10.6586513,9.9471199 9.9471199,10.6586513 9.04326923,11.1778846 C8.11057226,11.7259643 7.09615933,12 6,12 C4.90384067,12 3.88942774,11.7259643 2.95673077,11.1778846 C2.0528801,10.6490358 1.34134875,9.93269683 0.822115385,9.02884615 C0.274035721,8.09614918 0,7.08654389 0,6 C0,4.91345611 0.274035721,3.90385082 0.822115385,2.97115385 C1.35096418,2.06730317 2.06730317,1.35096418 2.97115385,0.822115385 C3.90385082,0.274035721 4.91345611,0 6,0 Z M5.40865385,2.98557692 L6.59134615,2.98557692 L6.59134615,6.59134615 L5.40865385,6.59134615 L5.40865385,2.98557692 Z M5.40865385,7.80288462 L6.59134615,7.80288462 L6.59134615,9.01442308 L5.40865385,9.01442308 L5.40865385,7.80288462 Z" id="error_outline---material"></path>
        </g>
    </g>
</svg>