<?xml version="1.0" encoding="UTF-8"?>
<svg width="11px" height="12px" viewBox="0 0 11 12" version="1.1" xmlns="http://www.w3.org/2000/svg" xmlns:xlink="http://www.w3.org/1999/xlink">
    <!-- Generator: Sketch 50.2 (55047) - http://www.bohemiancoding.com/sketch -->
    <title>file-excel-o - FontAwesome</title>
    <desc>Created with Sketch.</desc>
    <defs></defs>
    <g id="Page-1" stroke="none" stroke-width="1" fill="none" fill-rule="evenodd">
        <g id="Icon/Exportexcel" transform="translate(-1.000000, 0.000000)" fill="#3487CB">
            <path d="M10.8303689,2.54464589 C11.078137,2.79241404 11.2857265,3.28795035 11.2857265,3.64286149 L11.2857265,11.3571564 C11.2857265,11.7120675 10.9977798,12.0000143 10.6428686,12.0000143 L1.64285791,12.0000143 C1.28794677,12.0000143 1,11.7120675 1,11.3571564 L1,0.642857909 C1,0.287946772 1.28794677,0 1.64285791,0 L7.64286506,0 C7.9977762,0 8.4933125,0.207589533 8.74108066,0.455357686 L10.8303689,2.54464589 Z M7.85715103,0.910715371 L7.85715103,3.42857552 L10.3750112,3.42857552 C10.3348326,3.31473609 10.2745646,3.20089667 10.2276896,3.15402162 L8.13170493,1.05803698 C8.08482987,1.01116192 7.97099045,0.950893991 7.85715103,0.910715371 Z M10.4285827,11.1428704 L10.4285827,4.28571939 L7.64286506,4.28571939 C7.28795392,4.28571939 7.00000715,3.99777262 7.00000715,3.64286149 L7.00000715,0.857143879 L1.85714388,0.857143879 L1.85714388,11.1428704 L10.4285827,11.1428704 Z M3.87277128,10.2857265 L3.87277128,9.57590427 L4.32812897,9.57590427 L5.62723766,7.68081273 L4.36161115,5.85938198 L3.90625346,5.85938198 L3.90625346,5.14286327 L5.84822007,5.14286327 L5.84822007,5.85938198 L5.33929089,5.85938198 L6.04911316,6.9241154 C6.10268465,6.98438333 6.13616684,7.03125838 6.16295258,7.07813344 C6.17634546,7.09822275 6.18973833,7.11831206 6.19643477,7.1450978 L6.20982764,7.1450978 C6.20982764,7.15179424 6.27009557,7.05134769 6.35045281,6.9241154 L7.04018577,5.85938198 L6.54464947,5.85938198 L6.54464947,5.14286327 L8.41295527,5.14286327 L8.41295527,5.85938198 L7.96429402,5.85938198 L6.65848889,7.74777709 L7.94420471,9.57590427 L8.39956239,9.57590427 L8.39956239,10.2857265 L6.45089936,10.2857265 L6.45089936,9.57590427 L6.95982853,9.57590427 L6.24330982,8.49777799 C6.19643477,8.43081362 6.15625615,8.390635 6.1294704,8.33706351 C6.11607753,8.3169742 6.10268465,8.29688489 6.09598822,8.27009914 L6.08259534,8.27009914 C6.06250603,8.27009914 6.02232742,8.37054569 5.94197018,8.49777799 L5.25223721,9.57590427 L5.75446995,9.57590427 L5.75446995,10.2857265 L3.87277128,10.2857265 Z" id="file-excel-o---FontAwesome"></path>
        </g>
    </g>
</svg>