<?xml version="1.0" encoding="UTF-8"?>
<svg width="12px" height="7px" viewBox="0 0 12 7" version="1.1" xmlns="http://www.w3.org/2000/svg" xmlns:xlink="http://www.w3.org/1999/xlink">
    <!-- Generator: Sketch 50.2 (55047) - http://www.bohemiancoding.com/sketch -->
    <title>insert_link - material</title>
    <desc>Created with Sketch.</desc>
    <defs></defs>
    <g id="Page-1" stroke="none" stroke-width="1" fill="none" fill-rule="evenodd">
        <g id="Icon/Link-Copy" transform="translate(0.000000, -3.000000)" fill="#3487CB">
            <path d="M9.01614864,3 C9.55471594,3 10.0548067,3.13463981 10.5164358,3.40392346 C10.9780649,3.67320711 11.3411115,4.03865802 11.6055865,4.50028713 C11.8700615,4.96191625 12.0022971,5.46681553 12.0022971,6.0150001 C12.0022971,6.56318468 11.8700615,7.06808396 11.6055865,7.52971308 C11.3411115,7.99134219 10.9780649,8.3567931 10.5164358,8.62607675 C10.0548067,8.8953604 9.55471594,9.03000021 9.01614864,9.03000021 L6.59260788,9.03000021 L6.59260788,7.87593318 L9.01614864,7.87593318 C9.34313593,7.87593318 9.65088406,7.7917833 9.93940226,7.62348102 C10.2279205,7.45517874 10.4563273,7.22677192 10.6246296,6.93825373 C10.7929318,6.64973553 10.8770817,6.3419874 10.8770817,6.0150001 C10.8770817,5.68801281 10.7929318,5.38026468 10.6246296,5.09174648 C10.4563273,4.80322829 10.2279205,4.57482147 9.93940226,4.40651919 C9.65088406,4.2382169 9.34313593,4.15406703 9.01614864,4.15406703 L6.59260788,4.15406703 L6.59260788,3 L9.01614864,3 Z M3.60645946,6.60645946 L3.60645946,5.42354075 L8.39583761,5.42354075 L8.39583761,6.60645946 L3.60645946,6.60645946 Z M1.12521535,6.0150001 C1.12521535,6.3419874 1.20936523,6.64973553 1.37766751,6.93825373 C1.54596979,7.22677192 1.77437661,7.45517874 2.06289481,7.62348102 C2.35141301,7.7917833 2.65916114,7.87593318 2.98614843,7.87593318 L5.40968918,7.87593318 L5.40968918,9.03000021 L2.98614843,9.03000021 C2.44758112,9.03000021 1.94749041,8.8953604 1.4858613,8.62607675 C1.02423218,8.3567931 0.661185556,7.99134219 0.39671054,7.52971308 C0.132235524,7.06808396 0,6.56318468 0,6.0150001 C0,5.46681553 0.132235524,4.96191625 0.39671054,4.50028713 C0.661185556,4.03865802 1.02423218,3.67320711 1.4858613,3.40392346 C1.94749041,3.13463981 2.44758112,3 2.98614843,3 L5.40968918,3 L5.40968918,4.15406703 L2.98614843,4.15406703 C2.65916114,4.15406703 2.35141301,4.2382169 2.06289481,4.40651919 C1.77437661,4.57482147 1.54596979,4.80322829 1.37766751,5.09174648 C1.20936523,5.38026468 1.12521535,5.68801281 1.12521535,6.0150001 Z" id="insert_link---material"></path>
        </g>
    </g>
</svg>