<?xml version="1.0" encoding="UTF-8"?>
<svg width="12px" height="12px" viewBox="0 0 12 12" version="1.1" xmlns="http://www.w3.org/2000/svg" xmlns:xlink="http://www.w3.org/1999/xlink">
    <!-- Generator: Sketch 50.2 (55047) - http://www.bohemiancoding.com/sketch -->
    <title>ion-wrench - Ionicons Copy</title>
    <desc>Created with Sketch.</desc>
    <defs></defs>
    <g id="Page-1" stroke="none" stroke-width="1" fill="none" fill-rule="evenodd">
        <g id="Icon/Tool" fill="#4A4A4A">
            <path d="M11.5131845,2.22718059 C11.8701843,2.58418035 12.0308317,2.97687419 11.9951318,3.40527389 C11.9415818,4.04787345 11.6559863,4.62798935 11.1383366,5.14563899 C10.7634869,5.52048873 10.2904693,5.77484724 9.71926971,5.90872215 C9.1480701,6.04259706 8.61257851,6.00243519 8.11277885,5.78823534 C7.91642899,5.66328542 7.72900693,5.69006 7.55050705,5.86855988 L2.14198782,11.6251521 C1.90993798,11.875052 1.61988003,12 1.27180527,12 C0.923730505,12 0.624747696,11.875052 0.374847868,11.6251521 C0.12494804,11.3752523 0,11.0762695 0,10.7281947 C0,10.38012 0.12494804,10.090062 0.374847868,9.85801218 C4.06979532,6.39511457 5.98864022,4.59229285 6.13144012,4.44949295 C6.27424002,4.30669305 6.3010146,4.11034613 6.21176466,3.8604463 C5.74766498,2.78944704 5.96186162,1.78986272 6.85436101,0.861663361 C7.33631068,0.344013717 7.91642658,0.0584181977 8.59472611,0.00486823459 C9.02312581,-0.0308317408 9.41581965,0.129815739 9.77281941,0.486815493 L8.24665309,1.98620696 L8.51440157,3.48559843 L9.98701819,3.75334691 L11.5131845,2.22718059 Z M1.57971601,11.0093306 C1.77606588,10.8129808 1.77606588,10.607709 1.57971601,10.3935091 C1.38336615,10.1971593 1.18701923,10.1971593 0.990669365,10.3935091 C0.7943195,10.607709 0.7943195,10.8129808 0.990669365,11.0093306 C1.18701923,11.2056805 1.38336615,11.2056805 1.57971601,11.0093306 Z" id="ion-wrench---Ionicons-Copy"></path>
        </g>
    </g>
</svg>