<?xml version="1.0" encoding="UTF-8"?>
<svg width="10px" height="12px" viewBox="0 0 10 12" version="1.1" xmlns="http://www.w3.org/2000/svg" xmlns:xlink="http://www.w3.org/1999/xlink">
    <!-- Generator: Sketch 50.2 (55047) - http://www.bohemiancoding.com/sketch -->
    <title>ion-document - Ionicons</title>
    <desc>Created with Sketch.</desc>
    <defs></defs>
    <g id="Page-1" stroke="none" stroke-width="1" fill="none" fill-rule="evenodd">
        <g id="Icon/AttachedFile" transform="translate(-1.000000, 0.000000)" fill="#4A4A4A">
            <path d="M10.46875,3.28125 C10.4895834,3.34375031 10.5,3.43749938 10.5,3.5625 L10.5,11.1875 C10.5,11.3958344 10.4375006,11.5833325 10.3125,11.75 C10.1874994,11.9166675 10.0312509,12 9.84375,12 L2.25,12 C2.06249906,12 1.89062578,11.9166675 1.734375,11.75 C1.57812422,11.5833325 1.5,11.3958344 1.5,11.1875 L1.5,0.71875 C1.5,0.531249063 1.57812422,0.364584063 1.734375,0.21875 C1.89062578,0.0729159375 2.06249906,0 2.25,0 L7.25,0 C7.37500062,0 7.46874969,0.020833125 7.53125,0.0625 C7.65625062,0.125000312 7.72916656,0.166666563 7.75,0.1875 L10.34375,3.0625 C10.4062503,3.12500031 10.4479166,3.19791625 10.46875,3.28125 Z M7.53125,1.46875 L7.53125,3.4375 L9.34375,3.4375 L7.53125,1.46875 Z M2.5,11 L9.5,11 L9.5,4.4375 L7.40625,4.4375 C7.17708219,4.4375 6.97395922,4.34895922 6.796875,4.171875 C6.61979078,3.99479078 6.53125,3.79166781 6.53125,3.5625 L6.53125,1 L2.5,1 L2.5,11 Z" id="ion-document---Ionicons"></path>
        </g>
    </g>
</svg>