<?xml version="1.0" encoding="UTF-8"?>
<svg width="12px" height="12px" viewBox="0 0 12 12" version="1.1" xmlns="http://www.w3.org/2000/svg" xmlns:xlink="http://www.w3.org/1999/xlink">
    <!-- Generator: Sketch 50.2 (55047) - http://www.bohemiancoding.com/sketch -->
    <title>ion-chatbubbles - Ionicons</title>
    <desc>Created with Sketch.</desc>
    <defs></defs>
    <g id="Page-1" stroke="none" stroke-width="1" fill="none" fill-rule="evenodd">
        <g id="Icon/Chat" fill="#4A4A4A">
            <path d="M0.721153846,9.89423077 L0.692307692,9.86538462 L0.692307692,9.80769231 C0.230766923,9.13461202 0,8.39423481 0,7.58653846 C0,6.35576308 0.471149135,5.3365425 1.41346154,4.52884615 C1.33653808,4.95192519 1.29807692,5.278845 1.29807692,5.50961538 C1.29807692,6.8365451 1.78845663,7.97595678 2.76923077,8.92788462 C3.7500049,9.87981245 4.93268538,10.3557692 6.31730769,10.3557692 C6.7596176,10.3557692 7.18269029,10.2980775 7.58653846,10.1826923 C6.72114952,11.2019282 5.61539135,11.7115385 4.26923077,11.7115385 C3.7499974,11.7115385 3.19231067,11.596155 2.59615385,11.3653846 L2.56730769,11.3653846 C2.49038423,11.3269229 2.41346192,11.3076923 2.33653846,11.3076923 C2.27884587,11.3076923 2.19230827,11.3269229 2.07692308,11.3653846 L0.461538462,12 L0.807692308,10.1826923 C0.807692308,10.086538 0.778846442,9.9903851 0.721153846,9.89423077 Z M6.98076923,0 C8.36539154,0 9.54807202,0.475956779 10.5288462,1.42788462 C11.5096203,2.37981245 12,3.51922413 12,4.84615385 C12,5.75000452 11.7307719,6.61538048 11.1923077,7.44230769 L11.1634615,7.47115385 C11.1442307,7.49038471 11.1346154,7.50961529 11.1346154,7.52884615 C11.0769228,7.64423135 11.0480769,7.75961481 11.0480769,7.875 L11.5384615,10.0096154 L9.54807692,9.25961538 C9.43269173,9.22115365 9.33653885,9.20192308 9.25961538,9.20192308 C9.20192279,9.20192308 9.11538519,9.22115365 9,9.25961538 L8.94230769,9.28846154 C8.78846077,9.34615413 8.55769385,9.41346115 8.25,9.49038462 C7.84615183,9.60576981 7.42307913,9.66346154 6.98076923,9.66346154 C5.59614692,9.66346154 4.41827409,9.1923124 3.44711538,8.25 C2.47595668,7.3076876 1.99038462,6.17308356 1.99038462,4.84615385 C1.99038462,4.49999827 2.01923048,4.16346317 2.07692308,3.83653846 C2.30769346,2.74037913 2.88461077,1.82692673 3.80769231,1.09615385 C4.73077385,0.365380962 5.78845558,0 6.98076923,0 Z" id="ion-chatbubbles---Ionicons"></path>
        </g>
    </g>
</svg>