<?xml version="1.0" encoding="UTF-8"?>
<svg width="12px" height="12px" viewBox="0 0 12 12" version="1.1" xmlns="http://www.w3.org/2000/svg" xmlns:xlink="http://www.w3.org/1999/xlink">
    <!-- Generator: Sketch 50.2 (55047) - http://www.bohemiancoding.com/sketch -->
    <title>ion-grid - Ionicons</title>
    <desc>Created with Sketch.</desc>
    <defs></defs>
    <g id="Page-1" stroke="none" stroke-width="1" fill="none" fill-rule="evenodd">
        <g id="Icon/Grid" fill="#4A4A4A">
            <path d="M2.4,2.1375 C2.4,2.31250088 2.31250088,2.4 2.1375,2.4 L0.2625,2.4 C0.087499125,2.4 0,2.31250088 0,2.1375 L0,0.2625 C0,0.087499125 0.087499125,0 0.2625,0 L2.1375,0 C2.31250088,0 2.4,0.087499125 2.4,0.2625 L2.4,2.1375 Z M7.2,2.1375 C7.2,2.31250088 7.11250087,2.4 6.9375,2.4 L5.0625,2.4 C4.88749912,2.4 4.8,2.31250088 4.8,2.1375 L4.8,0.2625 C4.8,0.087499125 4.88749912,0 5.0625,0 L6.9375,0 C7.11250087,0 7.2,0.087499125 7.2,0.2625 L7.2,2.1375 Z M12,2.1375 C12,2.31250088 11.9125009,2.4 11.7375,2.4 L9.8625,2.4 C9.68749912,2.4 9.6,2.31250088 9.6,2.1375 L9.6,0.2625 C9.6,0.087499125 9.68749912,0 9.8625,0 L11.7375,0 C11.9125009,0 12,0.087499125 12,0.2625 L12,2.1375 Z M2.4,6.9375 C2.4,7.11250088 2.31250088,7.2 2.1375,7.2 L0.2625,7.2 C0.087499125,7.2 0,7.11250088 0,6.9375 L0,5.0625 C0,4.88749912 0.087499125,4.8 0.2625,4.8 L2.1375,4.8 C2.31250088,4.8 2.4,4.88749912 2.4,5.0625 L2.4,6.9375 Z M7.2,6.9375 C7.2,7.11250088 7.11250087,7.2 6.9375,7.2 L5.0625,7.2 C4.88749912,7.2 4.8,7.11250088 4.8,6.9375 L4.8,5.0625 C4.8,4.88749912 4.88749912,4.8 5.0625,4.8 L6.9375,4.8 C7.11250087,4.8 7.2,4.88749912 7.2,5.0625 L7.2,6.9375 Z M12,6.9375 C12,7.11250088 11.9125009,7.2 11.7375,7.2 L9.8625,7.2 C9.68749912,7.2 9.6,7.11250088 9.6,6.9375 L9.6,5.0625 C9.6,4.88749912 9.68749912,4.8 9.8625,4.8 L11.7375,4.8 C11.9125009,4.8 12,4.88749912 12,5.0625 L12,6.9375 Z M2.4,11.7375 C2.4,11.9125009 2.31250088,12 2.1375,12 L0.2625,12 C0.087499125,12 0,11.9125009 0,11.7375 L0,9.8625 C0,9.68749912 0.087499125,9.6 0.2625,9.6 L2.1375,9.6 C2.31250088,9.6 2.4,9.68749912 2.4,9.8625 L2.4,11.7375 Z M7.2,11.7375 C7.2,11.9125009 7.11250087,12 6.9375,12 L5.0625,12 C4.88749912,12 4.8,11.9125009 4.8,11.7375 L4.8,9.8625 C4.8,9.68749912 4.88749912,9.6 5.0625,9.6 L6.9375,9.6 C7.11250087,9.6 7.2,9.68749912 7.2,9.8625 L7.2,11.7375 Z M12,11.7375 C12,11.9125009 11.9125009,12 11.7375,12 L9.8625,12 C9.68749912,12 9.6,11.9125009 9.6,11.7375 L9.6,9.8625 C9.6,9.68749912 9.68749912,9.6 9.8625,9.6 L11.7375,9.6 C11.9125009,9.6 12,9.68749912 12,9.8625 L12,11.7375 Z" id="ion-grid---Ionicons"></path>
        </g>
    </g>
</svg>