<?xml version="1.0" encoding="UTF-8"?>
<svg width="12px" height="12px" viewBox="0 0 12 12" version="1.1" xmlns="http://www.w3.org/2000/svg" xmlns:xlink="http://www.w3.org/1999/xlink">
    <!-- Generator: Sketch 50.2 (55047) - http://www.bohemiancoding.com/sketch -->
    <title>ion-compose - Ionicons</title>
    <desc>Created with Sketch.</desc>
    <defs></defs>
    <g id="Page-1" stroke="none" stroke-width="1" fill="none" fill-rule="evenodd">
        <g id="Icon/Compose" fill="#7C7C7C">
            <path d="M11.7976644,1.16731609 C12.0674452,1.41634455 12.0674452,1.67574531 11.7976644,1.94552614 L10.8015555,2.9105066 L9.0894934,1.19844449 L10.0544739,0.202335625 C10.3242547,-0.0674452083 10.5836555,-0.0674452083 10.8326839,0.202335625 L11.7976644,1.16731609 Z M8.77820938,1.47860011 L10.4902715,3.19066222 L4.98054433,8.57587578 L2.9883266,9.0116734 L3.42412422,7.01945567 L8.77820938,1.47860011 Z M9.96108865,6.02334681 L10.9571975,5.02723794 L10.9571975,11.2840468 C10.9571975,11.4915705 10.8897533,11.662775 10.7548629,11.7976654 C10.6199725,11.9325558 10.448768,12 10.2412443,12 L0.715953247,12 C0.508429529,12 0.33722503,11.9325558 0.202334613,11.7976654 C0.0674441966,11.662775 0,11.4915705 0,11.2840468 L0,1.75875573 C0,1.55123201 0.0674441966,1.38002751 0.202334613,1.24513709 C0.33722503,1.11024668 0.508429529,1.04280248 0.715953247,1.04280248 L6.97276206,1.04280248 L5.97665319,2.03891135 L1.33852129,2.03891135 C1.1102452,2.03891135 0.996108865,2.14267165 0.996108865,2.35019537 L0.996108865,10.6926071 C0.996108865,10.9001308 1.09986917,11.0038911 1.30739289,11.0038911 L9.68093304,11.0038911 C9.86770438,11.0038911 9.96108865,10.9001308 9.96108865,10.6926071 L9.96108865,6.02334681 Z" id="ion-compose---Ionicons"></path>
        </g>
    </g>
</svg>