<?xml version="1.0" encoding="UTF-8"?>
<svg width="20px" height="20px" viewBox="0 0 20 20" version="1.1" xmlns="http://www.w3.org/2000/svg" xmlns:xlink="http://www.w3.org/1999/xlink">
    <!-- Generator: Sketch 51.1 (57501) - http://www.bohemiancoding.com/sketch -->
    <title>Group 23</title>
    <desc>Created with Sketch.</desc>
    <defs>
        <polygon id="path-1" points="0.00204878049 0.0136041507 13.9863323 0.0136041507 13.9863323 13.9999567 0.00204878049 13.9999567"></polygon>
    </defs>
    <g id="UI---Manager" stroke="none" stroke-width="1" fill="none" fill-rule="evenodd">
        <g id="Group-23">
            <rect id="Rectangle-22-Copy-10" fill="#3487CB" x="0" y="0" width="20" height="20" rx="2"></rect>
            <g id="001-time-management-copy-2" transform="translate(3.000000, 3.000000)">
                <g id="Group-3">
                    <mask id="mask-2" fill="white">
                        <use xlink:href="#path-1"></use>
                    </mask>
                    <g id="Clip-2"></g>
                    <path d="M7.85458049,0.0165609756 C7.61422439,-0.0131804878 7.40347317,0.18555122 7.40347317,0.427785366 L7.40347317,2.5204439 C9.71077561,2.72959024 11.5014439,4.67166341 11.5014439,7.00737561 C11.5014439,9.48629756 9.48400976,11.5150683 6.99371707,11.5150683 C4.65803902,11.5150683 2.71596585,9.72426341 2.50681951,7.41713171 L0.414160976,7.41713171 C0.171926829,7.41713171 -0.026804878,7.62784878 0.00293658537,7.86823902 C0.487131707,11.7746488 4.2943122,14.7181659 8.48242927,13.8458293 C11.1270293,13.2949463 13.2814585,11.1405512 13.8322049,8.49605366 C14.7045415,4.30793659 11.7610244,0.500756098 7.85458049,0.0165609756 Z" id="Fill-1" fill="#F0F3F6" mask="url(#mask-2)"></path>
                </g>
                <path d="M9.86228293,7.00737561 C9.86228293,6.77780976 10.0425073,6.59761951 10.272039,6.59761951 L10.6408537,6.59761951 C10.5588341,5.89280488 10.2884634,5.24521951 9.86228293,4.72076585 L9.59993659,4.97484878 C9.44426341,5.13878537 9.18201951,5.13878537 9.0262439,4.97484878 C8.8624439,4.81907317 8.8624439,4.55696585 9.0262439,4.4011561 L9.28032683,4.13880976 C8.75587317,3.71262927 8.10842439,3.44212195 7.40347317,3.36023902 L7.40347317,3.72905366 C7.40347317,3.95848293 7.22328293,4.13880976 6.99371707,4.13880976 C6.76418537,4.13880976 6.58396098,3.95848293 6.58396098,3.72905366 L6.58396098,3.36023902 C5.87918049,3.44212195 5.23159512,3.71262927 4.70714146,4.13880976 L4.96122439,4.4011561 C5.12516098,4.55682927 5.12516098,4.81907317 4.96122439,4.97484878 C4.80555122,5.13864878 4.54334146,5.13864878 4.38753171,4.97484878 L4.1252878,4.72076585 C3.69900488,5.24521951 3.42863415,5.89280488 3.34661463,6.59761951 L3.71542927,6.59761951 C3.94496098,6.59761951 4.12518537,6.77780976 4.12518537,7.00737561 C4.12518537,7.23677073 3.94496098,7.41713171 3.71542927,7.41713171 L3.34661463,7.41713171 C3.42863415,8.1219122 3.69900488,8.76936098 4.12518537,9.29395122 L4.38753171,9.03986829 C4.54320488,8.87593171 4.80541463,8.87593171 4.96122439,9.03986829 C5.12502439,9.19554146 5.12502439,9.45775122 4.96122439,9.61356098 L4.70714146,9.87580488 C5.23159512,10.3019512 5.8790439,10.5724585 6.58382439,10.654478 L6.58382439,10.2856634 C6.58382439,10.0561317 6.76418537,9.87590732 6.99371707,9.87590732 C7.22314634,9.87590732 7.40347317,10.0561317 7.40347317,10.2856634 L7.40347317,10.654478 C8.1082878,10.5724585 8.75587317,10.3019512 9.28019024,9.87590732 L9.0262439,9.61356098 C8.86230732,9.4578878 8.86230732,9.19567805 9.0262439,9.03986829 C9.18188293,8.87593171 9.44412683,8.87593171 9.59993659,9.03986829 L9.86214634,9.29395122 C10.2883268,8.76936098 10.5588341,8.1219122 10.6407171,7.41713171 L10.272039,7.41713171 C10.0425073,7.41713171 9.86228293,7.23677073 9.86228293,7.00737561 Z M8.10309756,8.11672195 C7.94301951,8.27676585 7.6837122,8.27676585 7.52353171,8.11672195 L6.70401951,7.29707317 C6.62719024,7.2202439 6.58396098,7.1162 6.58396098,7.00737561 L6.58396098,5.36821463 C6.58396098,5.14172195 6.76725854,4.95845854 6.99371707,4.95845854 C7.22020976,4.95845854 7.40347317,5.14172195 7.40347317,5.36821463 L7.40347317,6.83770244 L8.10309756,7.5371561 C8.26314146,7.69723415 8.26314146,7.95650732 8.10309756,8.11672195 Z" id="Fill-4" fill="#F0F3F6"></path>
                <path d="M0.867658537,6.59761951 L2.50681951,6.59761951 C2.70169268,4.44810732 4.40941951,2.71760488 6.58396098,2.5204439 L6.58396098,0.881282927 C3.52175122,1.0845561 1.07106829,3.53537561 0.867658537,6.59761951 Z" id="Fill-5" fill="#F0F3F6"></path>
            </g>
        </g>
    </g>
</svg>