<?xml version="1.0" encoding="UTF-8"?>
<svg width="12px" height="11px" viewBox="0 0 12 11" version="1.1" xmlns="http://www.w3.org/2000/svg" xmlns:xlink="http://www.w3.org/1999/xlink">
    <!-- Generator: Sketch 50.2 (55047) - http://www.bohemiancoding.com/sketch -->
    <title>Mask</title>
    <desc>Created with Sketch.</desc>
    <defs></defs>
    <g id="Page-1" stroke="none" stroke-width="1" fill="none" fill-rule="evenodd">
        <g id="Icon/History-Copy" transform="translate(0.000000, -1.000000)" fill="#3487CB">
            <path d="M6.29747998,3.86747999 L7.16183997,3.86747999 L7.16183997,6.28219998 L9.16495997,7.48955998 L8.73963997,8.17555997 L6.29747998,6.70751998 L6.29747998,3.86747999 Z M6.85999997,1 C7.79296464,1 8.65731599,1.23323767 9.45307996,1.69972 C10.2305505,2.15705562 10.8479443,2.77444944 11.30528,3.55191999 C11.7717623,4.34768397 12.005,5.21203532 12.005,6.14499998 C12.005,7.07796464 11.7717623,7.942316 11.30528,8.73807997 C10.8479443,9.51555052 10.2305505,10.1329443 9.45307996,10.59028 C8.65731599,11.0567623 7.79296464,11.29 6.85999997,11.29 C6.16484983,11.29 5.50172314,11.1573746 4.87059998,10.89212 C4.26691697,10.636012 3.72269574,10.270149 3.23791999,9.79451997 L4.04739998,8.95759997 C4.42241519,9.33261518 4.84315765,9.6207323 5.30963998,9.82195997 C5.80356245,10.0323344 6.32034394,10.13752 6.85999997,10.13752 C7.59173696,10.13752 8.26401024,9.95916175 8.87683997,9.60243997 C9.4896697,9.24571819 9.97443818,8.76552299 10.33116,8.16183997 C10.6970285,7.54901024 10.87996,6.87673697 10.87996,6.14499998 C10.87996,5.41326299 10.6970285,4.74098972 10.33116,4.12815999 C9.97443818,3.52447697 9.4896697,3.04428178 8.87683997,2.68755999 C8.26401024,2.33083821 7.59173696,2.15248 6.85999997,2.15248 C6.12826299,2.15248 5.45598971,2.33083821 4.84315998,2.68755999 C4.23947697,3.04428178 3.75928177,3.52447697 3.40255999,4.12815999 C3.04583821,4.74098972 2.86747999,5.41326299 2.86747999,6.14499998 L4.58247998,6.14499998 L2.27751999,8.44995997 L2.22263999,8.36763997 L0,6.14499998 L1.71499999,6.14499998 C1.71499999,5.21203532 1.94823766,4.34768397 2.41471999,3.55191999 C2.87205561,2.77444944 3.48944943,2.15705562 4.26691998,1.69972 C5.06268396,1.23323767 5.92703531,1 6.85999997,1 Z" id="Mask"></path>
        </g>
    </g>
</svg>