<?xml version="1.0" encoding="UTF-8"?>
<svg width="12px" height="4px" viewBox="0 0 12 4" version="1.1" xmlns="http://www.w3.org/2000/svg" xmlns:xlink="http://www.w3.org/1999/xlink">
    <!-- Generator: Sketch 50.2 (55047) - http://www.bohemiancoding.com/sketch -->
    <title>more_horiz - material</title>
    <desc>Created with Sketch.</desc>
    <defs></defs>
    <g id="Page-1" stroke="none" stroke-width="1" fill="none" fill-rule="evenodd">
        <g id="Icon/More" transform="translate(0.000000, -4.000000)" fill="#4A4A4A">
            <path d="M6.00500011,4.5 C6.41252711,4.5 6.76611141,4.64982385 7.06576361,4.94947606 C7.36541581,5.24912826 7.51523966,5.60271255 7.51523966,6.01023955 C7.51523966,6.41776655 7.36541581,6.77135084 7.06576361,7.07100304 C6.76611141,7.37065525 6.41252711,7.5204791 6.00500011,7.5204791 C5.59747312,7.5204791 5.24388882,7.37065525 4.94423662,7.07100304 C4.64458442,6.77135084 4.49476056,6.41776655 4.49476056,6.01023955 C4.49476056,5.60271255 4.64458442,5.24912826 4.94423662,4.94947606 C5.24388882,4.64982385 5.59747312,4.5 6.00500011,4.5 Z M10.4997607,4.5 C10.9072877,4.5 11.260872,4.64982385 11.5605242,4.94947606 C11.8601764,5.24912826 12.0100002,5.60271255 12.0100002,6.01023955 C12.0100002,6.41776655 11.8601764,6.77135084 11.5605242,7.07100304 C11.260872,7.37065525 10.9072877,7.5204791 10.4997607,7.5204791 C10.0922337,7.5204791 9.73864939,7.37065525 9.43899719,7.07100304 C9.13934498,6.77135084 8.98952113,6.41776655 8.98952113,6.01023955 C8.98952113,5.60271255 9.13934498,5.24912826 9.43899719,4.94947606 C9.73864939,4.64982385 10.0922337,4.5 10.4997607,4.5 Z M1.51023955,4.5 C1.91776655,4.5 2.27135084,4.64982385 2.57100304,4.94947606 C2.87065525,5.24912826 3.0204791,5.60271255 3.0204791,6.01023955 C3.0204791,6.41776655 2.87065525,6.77135084 2.57100304,7.07100304 C2.27135084,7.37065525 1.91776655,7.5204791 1.51023955,7.5204791 C1.10271255,7.5204791 0.749128259,7.37065525 0.449476056,7.07100304 C0.149823854,6.77135084 0,6.41776655 0,6.01023955 C0,5.60271255 0.149823854,5.24912826 0.449476056,4.94947606 C0.749128259,4.64982385 1.10271255,4.5 1.51023955,4.5 Z" id="more_horiz---material"></path>
        </g>
    </g>
</svg>