<?xml version="1.0" encoding="UTF-8"?>
<svg width="20px" height="23px" viewBox="0 0 20 23" version="1.1" xmlns="http://www.w3.org/2000/svg" xmlns:xlink="http://www.w3.org/1999/xlink">
    <!-- Generator: Sketch 50.2 (55047) - http://www.bohemiancoding.com/sketch -->
    <title>notifications - material</title>
    <desc>Created with Sketch.</desc>
    <defs></defs>
    <g id="Symbols" stroke="none" stroke-width="1" fill="none" fill-rule="evenodd">
        <g id="menu/top" transform="translate(-1272.000000, -14.000000)" fill="#FFFFFF">
            <g id="Group" transform="translate(1268.000000, 11.000000)">
                <path d="M21,18.848 L23.352,21.2 L23.352,22.348 L4.648,22.348 L4.648,21.2 L7,18.848 L7,13.052 C7,11.2226575 7.45732876,9.64533996 8.372,8.32 C9.305338,6.95732652 10.6026584,6.07066872 12.264,5.66 L12.264,4.848 C12.264,4.36266424 12.4319983,3.94733506 12.768,3.602 C13.1040017,3.25666494 13.5146642,3.084 14,3.084 C14.4853358,3.084 14.9006649,3.25666494 15.246,3.602 C15.5913351,3.94733506 15.764,4.36266424 15.764,4.848 L15.764,5.66 C17.4066749,6.07066872 18.694662,6.96665976 19.628,8.348 C20.5426712,9.67333996 21,11.2413243 21,13.052 L21,18.848 Z M14,25.848 C13.3466634,25.848 12.7913356,25.6240022 12.334,25.176 C11.8766644,24.7279978 11.648,24.1866698 11.648,23.552 L16.352,23.552 C16.352,24.1866698 16.118669,24.7279978 15.652,25.176 C15.185331,25.6240022 14.6346698,25.848 14,25.848 Z" id="notifications---material"></path>
            </g>
        </g>
    </g>
</svg>