<?xml version="1.0" encoding="UTF-8"?>
<svg width="20px" height="20px" viewBox="0 0 20 20" version="1.1" xmlns="http://www.w3.org/2000/svg" xmlns:xlink="http://www.w3.org/1999/xlink">
    <!-- Generator: Sketch 51.1 (57501) - http://www.bohemiancoding.com/sketch -->
    <title>Group 26</title>
    <desc>Created with Sketch.</desc>
    <defs></defs>
    <g id="UI---Manager" stroke="none" stroke-width="1" fill="none" fill-rule="evenodd">
        <g id="Group-26">
            <rect id="Rectangle-22-Copy-10" fill="#3487CB" x="0" y="0" width="20" height="20" rx="2"></rect>
            <path d="M9.5,12 C8.95008701,12 8.5,12.5591178 8.5,13.2422438 L8.5,15.7577562 C8.5,16.4410344 8.95008701,17 9.5,17 C10.050011,17 10.5,16.4410344 10.5,15.7577562 L10.5,13.2422438 C10.5,12.5591178 10.050011,12 9.5,12 Z" id="Fill-1" fill="#F0F3F6"></path>
            <path d="M13.4273211,4.52672137 L11.3272222,4.52672137 C11.0817922,3.64128285 10.3454487,3 9.47268692,3 C8.59992513,3 7.86358167,3.64128285 7.61815168,4.52672137 L5.54540593,4.52672137 C5.24542999,4.52672137 5,4.80153121 5,5.13735004 C5,5.47331855 5.24542999,5.74812839 5.54540593,5.74812839 L7.64539791,5.74812839 C7.78181624,6.26721366 8.08179217,6.69472558 8.49088673,6.96953542 C7.01809285,7.45808626 5.92725425,8.98480763 5.92725425,10.7863388 L5.92725425,13.9923639 C5.92725425,14.5419836 6.33626859,15 6.82728901,15 L7.56363247,15 L7.56363247,13.2595376 C7.56363247,12.0686351 8.43636753,11.0916532 9.49995989,11.0916532 C10.5636325,11.0916532 11.4363675,12.0687548 11.4363675,13.2595376 L11.4363675,15 L12.1727377,15 C12.6636245,15 13.0727457,14.5419836 13.0727457,13.9923639 L13.0727457,10.8168433 C13.0727457,9.01519237 11.9818002,7.45808626 10.5091133,7.00003991 C10.9181276,6.72523007 11.2181838,6.29771815 11.3544951,5.77863289 L13.4545941,5.77863289 C13.75457,5.77863289 14,5.50385298 14,5.16800421 C13.9727538,4.80153121 13.727297,4.52672137 13.4273211,4.52672137 Z M9.47268692,6.3892915 C8.87276179,6.3892915 8.38174137,5.8396718 8.38174137,5.16800421 C8.38174137,4.49618694 8.87276179,3.94659718 9.47268692,3.94659718 C10.072719,3.94659718 10.5636325,4.49618694 10.5636325,5.16800421 C10.5908787,5.8396718 10.099992,6.3892915 9.47268692,6.3892915 Z" id="Fill-2" fill="#F0F3F6"></path>
        </g>
    </g>
</svg>