<?xml version="1.0" encoding="UTF-8"?>
<svg width="12px" height="10px" viewBox="0 0 12 10" version="1.1" xmlns="http://www.w3.org/2000/svg" xmlns:xlink="http://www.w3.org/1999/xlink">
    <!-- Generator: Sketch 50.2 (55047) - http://www.bohemiancoding.com/sketch -->
    <title>payment - material</title>
    <desc>Created with Sketch.</desc>
    <defs></defs>
    <g id="Page-1" stroke="none" stroke-width="1" fill="none" fill-rule="evenodd">
        <g id="Icon/Payment" transform="translate(0.000000, -1.000000)" fill="#4A4A4A">
            <path d="M10.8173077,3.42307692 L10.8173077,2.21153846 L1.18269231,2.21153846 L1.18269231,3.42307692 L10.8173077,3.42307692 Z M10.8173077,9.42307692 L10.8173077,5.81730769 L1.18269231,5.81730769 L1.18269231,9.42307692 L10.8173077,9.42307692 Z M10.8173077,1 C11.1538478,1 11.435095,1.11778728 11.6610577,1.35336538 C11.8870204,1.58894349 12,1.87499832 12,2.21153846 L12,9.42307692 C12,9.75961707 11.8870204,10.0456719 11.6610577,10.28125 C11.435095,10.5168281 11.1538478,10.6346154 10.8173077,10.6346154 L1.18269231,10.6346154 C0.846152163,10.6346154 0.564904976,10.5168281 0.338942308,10.28125 C0.112979639,10.0456719 0,9.75961707 0,9.42307692 L0,2.21153846 C0,1.87499832 0.112979639,1.58894349 0.338942308,1.35336538 C0.564904976,1.11778728 0.846152163,1 1.18269231,1 L10.8173077,1 Z" id="payment---material"></path>
        </g>
    </g>
</svg>