<?xml version="1.0" encoding="UTF-8"?>
<svg width="12px" height="9px" viewBox="0 0 12 9" version="1.1" xmlns="http://www.w3.org/2000/svg" xmlns:xlink="http://www.w3.org/1999/xlink">
    <!-- Generator: Sketch 50.2 (55047) - http://www.bohemiancoding.com/sketch -->
    <title>person_add - material</title>
    <desc>Created with Sketch.</desc>
    <defs></defs>
    <g id="Page-1" stroke="none" stroke-width="1" fill="none" fill-rule="evenodd">
        <g id="Icon/Add" transform="translate(0.000000, -2.000000)" fill="#4A4A4A">
            <path d="M7.63221517,7.46278414 C8.17239748,7.46278414 8.76484662,7.54119653 9.40958034,7.69802365 C10.1414403,7.88098863 10.7338894,8.12493827 11.1869455,8.4298799 C11.7271278,8.78709724 11.9972149,9.18787165 11.9972149,9.63221517 L11.9972149,10.7299995 L3.2672154,10.7299995 L3.2672154,9.63221517 C3.2672154,9.18787165 3.5373025,8.78709724 4.07748482,8.4298799 C4.53054095,8.12493827 5.12299008,7.88098863 5.85484999,7.69802365 C6.49958372,7.54119653 7.09203286,7.46278414 7.63221517,7.46278414 Z M2.73139207,5.2672154 L4.36499977,5.2672154 L4.36499977,6.36499977 L2.73139207,6.36499977 L2.73139207,7.99860747 L1.6336077,7.99860747 L1.6336077,6.36499977 L0,6.36499977 L0,5.2672154 L1.6336077,5.2672154 L1.6336077,3.6336077 L2.73139207,3.6336077 L2.73139207,5.2672154 Z M7.63221517,6.36499977 C7.24014736,6.36499977 6.87857914,6.26698429 6.54749966,6.07095039 C6.21642017,5.87491648 5.95286743,5.61136374 5.75683353,5.28028426 C5.56079963,4.94920478 5.46278414,4.58763656 5.46278414,4.19556875 C5.46278414,3.80350094 5.56079963,3.43757647 5.75683353,3.09778437 C5.95286743,2.75799227 6.21642017,2.49008329 6.54749966,2.29404939 C6.87857914,2.09801548 7.24014736,2 7.63221517,2 C8.02428298,2 8.3858512,2.09801548 8.71693068,2.29404939 C9.04801016,2.49008329 9.3115629,2.75799227 9.50759681,3.09778437 C9.70363071,3.43757647 9.80164619,3.80350094 9.80164619,4.19556875 C9.80164619,4.58763656 9.70363071,4.94920478 9.50759681,5.28028426 C9.3115629,5.61136374 9.04801016,5.87491648 8.71693068,6.07095039 C8.3858512,6.26698429 8.02428298,6.36499977 7.63221517,6.36499977 Z" id="person_add---material"></path>
        </g>
    </g>
</svg>