<?xml version="1.0" encoding="UTF-8"?>
<svg width="12px" height="9px" viewBox="0 0 12 9" version="1.1" xmlns="http://www.w3.org/2000/svg" xmlns:xlink="http://www.w3.org/1999/xlink">
    <!-- Generator: Sketch 50.2 (55047) - http://www.bohemiancoding.com/sketch -->
    <title>remove_red_eye - material</title>
    <desc>Created with Sketch.</desc>
    <defs></defs>
    <g id="Page-1" stroke="none" stroke-width="1" fill="none" fill-rule="evenodd">
        <g id="Icon/Seen" transform="translate(0.000000, -2.000000)" fill="#4A4A4A">
            <path d="M6.00004806,4.45753602 C6.2876335,4.45753602 6.55778546,4.53160995 6.81051206,4.67976003 C7.06323866,4.8279101 7.26367399,5.02834543 7.41182407,5.28107203 C7.55997414,5.53379863 7.63404807,5.8039506 7.63404807,6.09153604 C7.63404807,6.37912148 7.55997414,6.64927345 7.41182407,6.90200005 C7.26367399,7.15472665 7.06323866,7.35516198 6.81051206,7.50331205 C6.55778546,7.65146213 6.2876335,7.72553605 6.00004806,7.72553605 C5.71246262,7.72553605 5.44231065,7.65146213 5.18958405,7.50331205 C4.93685745,7.35516198 4.73642212,7.15472665 4.58827204,6.90200005 C4.44012197,6.64927345 4.36604804,6.37912148 4.36604804,6.09153604 C4.36604804,5.8039506 4.44012197,5.53379863 4.58827204,5.28107203 C4.73642212,5.02834543 4.93685745,4.8279101 5.18958405,4.67976003 C5.44231065,4.53160995 5.71246262,4.45753602 6.00004806,4.45753602 Z M6.00004806,8.82358406 C6.49678654,8.82358406 6.95430197,8.70157995 7.37260807,8.45756806 C7.79091416,8.21355617 8.12206819,7.88240215 8.36608008,7.46409605 C8.61009197,7.04578996 8.73209608,6.58827453 8.73209608,6.09153604 C8.73209608,5.59479755 8.61009197,5.13728212 8.36608008,4.71897603 C8.12206819,4.30066993 7.79091416,3.96951591 7.37260807,3.72550402 C6.95430197,3.48149213 6.49678654,3.35948801 6.00004806,3.35948801 C5.50330957,3.35948801 5.04579414,3.48149213 4.62748804,3.72550402 C4.20918195,3.96951591 3.87802792,4.30066993 3.63401603,4.71897603 C3.39000414,5.13728212 3.26800003,5.59479755 3.26800003,6.09153604 C3.26800003,6.58827453 3.39000414,7.04578996 3.63401603,7.46409605 C3.87802792,7.88240215 4.20918195,8.21355617 4.62748804,8.45756806 C5.04579414,8.70157995 5.50330957,8.82358406 6.00004806,8.82358406 Z M6.00004806,2 C6.89766322,2 7.75169202,2.17429159 8.56216008,2.52288 C9.34648401,2.86275371 10.0371144,3.34205559 10.6340721,3.96080002 C11.2310298,4.57954445 11.6863665,5.28978269 12.0000961,6.09153604 C11.6863665,6.89328939 11.2310298,7.60134898 10.6340721,8.21573606 C10.0371144,8.83012314 9.34648401,9.30724637 8.56216008,9.64712007 C7.75169202,9.99570848 6.89766322,10.1700001 6.00004806,10.1700001 C5.10243289,10.1700001 4.24840409,9.99570848 3.43793603,9.64712007 C2.6536121,9.30724637 1.96298167,8.83012314 1.36602401,8.21573606 C0.769066356,7.60134898 0.313729572,6.89328939 0,6.09153604 C0.313729572,5.28978269 0.769066356,4.57954445 1.36602401,3.96080002 C1.96298167,3.34205559 2.6536121,2.86275371 3.43793603,2.52288 C4.24840409,2.17429159 5.10243289,2 6.00004806,2 Z" id="remove_red_eye---material"></path>
        </g>
    </g>
</svg>