<svg xmlns="http://www.w3.org/2000/svg" xmlns:xlink="http://www.w3.org/1999/xlink" width="12" height="12" viewBox="0 0 12 12">
    <defs>
        <path id="a" d="M6 2.458a1.658 1.658 0 0 1 1.634 1.634A1.658 1.658 0 0 1 6 5.726c-.288 0-.558-.075-.81-.223a1.658 1.658 0 0 1-.824-1.411A1.658 1.658 0 0 1 6 2.458zm0 4.366a2.716 2.716 0 0 0 2.366-1.36c.244-.418.366-.876.366-1.372 0-.497-.122-.955-.366-1.373a2.716 2.716 0 0 0-.993-.993A2.676 2.676 0 0 0 6 1.359c-.497 0-.954.122-1.373.367-.418.244-.749.575-.993.993a2.676 2.676 0 0 0-.366 1.373c0 .496.122.954.366 1.372.244.418.575.75.993.994.419.244.876.366 1.373.366zM6 0a6.374 6.374 0 0 1 4.634 1.96A6.396 6.396 0 0 1 12 4.093a6.325 6.325 0 0 1-1.366 2.124A6.423 6.423 0 0 1 6 8.17a6.417 6.417 0 0 1-6-4.078A6.396 6.396 0 0 1 1.366 1.96 6.374 6.374 0 0 1 6 0z"/>
    </defs>
    <g fill="none" fill-rule="evenodd" transform="translate(0 2)">
        <mask id="b" fill="#fff">
            <use xlink:href="#a"/>
        </mask>
        <use fill="#4A4A4A" xlink:href="#a"/>
        <g fill="#4A4A4A" mask="url(#b)">
            <rect width="25" height="22" rx="4" transform="translate(-6 -2)"/>
        </g>
    </g>
</svg>
