<?xml version="1.0" encoding="UTF-8"?>
<svg width="12px" height="11px" viewBox="0 0 12 11" version="1.1" xmlns="http://www.w3.org/2000/svg" xmlns:xlink="http://www.w3.org/1999/xlink">
    <!-- Generator: Sketch 50.2 (55047) - http://www.bohemiancoding.com/sketch -->
    <title>table - FontAwesome</title>
    <desc>Created with Sketch.</desc>
    <defs></defs>
    <g id="Page-1" stroke="none" stroke-width="1" fill="none" fill-rule="evenodd">
        <g id="Icon/Table" transform="translate(0.000000, -1.000000)" fill="#4A4A4A">
            <path d="M3.69090895,9.99659057 L3.69090895,8.61249971 C3.69090895,8.4827412 3.58998566,8.3818179 3.46022714,8.3818179 L1.15340905,8.3818179 C1.02365053,8.3818179 0.922727238,8.4827412 0.922727238,8.61249971 L0.922727238,9.99659057 C0.922727238,10.1263491 1.02365053,10.2272724 1.15340905,10.2272724 L3.46022714,10.2272724 C3.58998566,10.2272724 3.69090895,10.1263491 3.69090895,9.99659057 Z M3.69090895,7.22840886 L3.69090895,5.844318 C3.69090895,5.71455948 3.58998566,5.61363619 3.46022714,5.61363619 L1.15340905,5.61363619 C1.02365053,5.61363619 0.922727238,5.71455948 0.922727238,5.844318 L0.922727238,7.22840886 C0.922727238,7.35816737 1.02365053,7.45909067 1.15340905,7.45909067 L3.46022714,7.45909067 C3.58998566,7.45909067 3.69090895,7.35816737 3.69090895,7.22840886 Z M7.3818179,9.99659057 L7.3818179,8.61249971 C7.3818179,8.4827412 7.28089461,8.3818179 7.15113609,8.3818179 L4.844318,8.3818179 C4.71455948,8.3818179 4.61363619,8.4827412 4.61363619,8.61249971 L4.61363619,9.99659057 C4.61363619,10.1263491 4.71455948,10.2272724 4.844318,10.2272724 L7.15113609,10.2272724 C7.28089461,10.2272724 7.3818179,10.1263491 7.3818179,9.99659057 Z M3.69090895,4.46022714 L3.69090895,3.07613629 C3.69090895,2.94637777 3.58998566,2.84545448 3.46022714,2.84545448 L1.15340905,2.84545448 C1.02365053,2.84545448 0.922727238,2.94637777 0.922727238,3.07613629 L0.922727238,4.46022714 C0.922727238,4.58998566 1.02365053,4.69090895 1.15340905,4.69090895 L3.46022714,4.69090895 C3.58998566,4.69090895 3.69090895,4.58998566 3.69090895,4.46022714 Z M7.3818179,7.22840886 L7.3818179,5.844318 C7.3818179,5.71455948 7.28089461,5.61363619 7.15113609,5.61363619 L4.844318,5.61363619 C4.71455948,5.61363619 4.61363619,5.71455948 4.61363619,5.844318 L4.61363619,7.22840886 C4.61363619,7.35816737 4.71455948,7.45909067 4.844318,7.45909067 L7.15113609,7.45909067 C7.28089461,7.45909067 7.3818179,7.35816737 7.3818179,7.22840886 Z M11.0727269,9.99659057 L11.0727269,8.61249971 C11.0727269,8.4827412 10.9718036,8.3818179 10.842045,8.3818179 L8.53522695,8.3818179 C8.40546843,8.3818179 8.30454514,8.4827412 8.30454514,8.61249971 L8.30454514,9.99659057 C8.30454514,10.1263491 8.40546843,10.2272724 8.53522695,10.2272724 L10.842045,10.2272724 C10.9718036,10.2272724 11.0727269,10.1263491 11.0727269,9.99659057 Z M7.3818179,4.46022714 L7.3818179,3.07613629 C7.3818179,2.94637777 7.28089461,2.84545448 7.15113609,2.84545448 L4.844318,2.84545448 C4.71455948,2.84545448 4.61363619,2.94637777 4.61363619,3.07613629 L4.61363619,4.46022714 C4.61363619,4.58998566 4.71455948,4.69090895 4.844318,4.69090895 L7.15113609,4.69090895 C7.28089461,4.69090895 7.3818179,4.58998566 7.3818179,4.46022714 Z M11.0727269,7.22840886 L11.0727269,5.844318 C11.0727269,5.71455948 10.9718036,5.61363619 10.842045,5.61363619 L8.53522695,5.61363619 C8.40546843,5.61363619 8.30454514,5.71455948 8.30454514,5.844318 L8.30454514,7.22840886 C8.30454514,7.35816737 8.40546843,7.45909067 8.53522695,7.45909067 L10.842045,7.45909067 C10.9718036,7.45909067 11.0727269,7.35816737 11.0727269,7.22840886 Z M11.0727269,4.46022714 L11.0727269,3.07613629 C11.0727269,2.94637777 10.9718036,2.84545448 10.842045,2.84545448 L8.53522695,2.84545448 C8.40546843,2.84545448 8.30454514,2.94637777 8.30454514,3.07613629 L8.30454514,4.46022714 C8.30454514,4.58998566 8.40546843,4.69090895 8.53522695,4.69090895 L10.842045,4.69090895 C10.9718036,4.69090895 11.0727269,4.58998566 11.0727269,4.46022714 Z M11.9954541,2.15340905 L11.9954541,9.99659057 C11.9954541,10.6309655 11.47642,11.1499996 10.842045,11.1499996 L1.15340905,11.1499996 C0.519034071,11.1499996 0,10.6309655 0,9.99659057 L0,2.15340905 C0,1.51903407 0.519034071,1 1.15340905,1 L10.842045,1 C11.47642,1 11.9954541,1.51903407 11.9954541,2.15340905 Z" id="table---FontAwesome"></path>
        </g>
    </g>
</svg>