<svg xmlns="http://www.w3.org/2000/svg" xmlns:xlink="http://www.w3.org/1999/xlink" width="12" height="12" viewBox="0 0 12 12">
    <defs>
        <path id="a" d="M3.69 8.997V7.612c0-.13-.1-.23-.23-.23H1.153c-.13 0-.23.1-.23.23v1.385c0 .13.1.23.23.23H3.46c.13 0 .23-.1.23-.23zm0-2.769V4.844c0-.13-.1-.23-.23-.23H1.153c-.13 0-.23.1-.23.23v1.384c0 .13.1.231.23.231H3.46c.13 0 .23-.1.23-.23zm3.692 2.769V7.612c0-.13-.101-.23-.23-.23H4.843c-.13 0-.23.1-.23.23v1.385c0 .13.1.23.23.23h2.307c.13 0 .23-.1.23-.23zM3.69 3.46V2.076c0-.13-.101-.23-.23-.23H1.152c-.13 0-.23.1-.23.23V3.46c0 .13.1.23.23.23H3.46c.13 0 .23-.1.23-.23zm3.69 2.768V4.844c0-.13-.1-.23-.23-.23H4.844c-.13 0-.23.1-.23.23v1.384c0 .13.1.231.23.231h2.307c.13 0 .23-.1.23-.23zm3.692 2.769V7.612c0-.13-.101-.23-.231-.23H8.535c-.13 0-.23.1-.23.23v1.385c0 .13.1.23.23.23h2.307c.13 0 .23-.1.23-.23zM7.382 3.46V2.076c0-.13-.101-.23-.23-.23H4.843c-.13 0-.23.1-.23.23V3.46c0 .13.1.23.23.23h2.307c.13 0 .23-.1.23-.23zm3.69 2.768V4.844c0-.13-.1-.23-.23-.23H8.535c-.13 0-.23.1-.23.23v1.384c0 .13.1.231.23.231h2.307c.13 0 .23-.1.23-.23zm0-2.768V2.076c0-.13-.1-.23-.23-.23H8.535c-.13 0-.23.1-.23.23V3.46c0 .13.1.23.23.23h2.307c.13 0 .23-.1.23-.23zm.923-2.307v7.844c0 .634-.519 1.153-1.153 1.153H1.153A1.157 1.157 0 0 1 0 8.997V1.153C0 .52.519 0 1.153 0h9.689c.634 0 1.153.519 1.153 1.153z"/>
    </defs>
    <g fill="none" fill-rule="evenodd" transform="translate(0 1)">
        <mask id="b" fill="#fff">
            <use xlink:href="#a"/>
        </mask>
        <use fill="#4A4A4A" xlink:href="#a"/>
        <g fill="#3487CB" mask="url(#b)">
            <rect width="20" height="13" rx="4" transform="translate(-2 -1)"/>
        </g>
    </g>
</svg>
