<?xml version="1.0" encoding="UTF-8"?>
<svg width="20px" height="20px" viewBox="0 0 20 20" version="1.1" xmlns="http://www.w3.org/2000/svg" xmlns:xlink="http://www.w3.org/1999/xlink">
    <!-- Generator: Sketch 51.1 (57501) - http://www.bohemiancoding.com/sketch -->
    <title>Group 22</title>
    <desc>Created with Sketch.</desc>
    <defs>
        <polygon id="path-1" points="3.00204878 3.01361564 16.9863958 3.01361564 16.9863958 16.9659828 3.00204878 16.9659828"></polygon>
    </defs>
    <g id="UI---Manager" stroke="none" stroke-width="1" fill="none" fill-rule="evenodd">
        <g id="Group-22">
            <rect id="Rectangle-22-Copy-10" fill="#3487CB" x="0" y="0" width="20" height="20" rx="2"></rect>
            <mask id="mask-2" fill="white">
                <use xlink:href="#path-1"></use>
            </mask>
            <g id="Clip-2"></g>
            <path d="M9.75978049,6.03701217 C9.48555122,6.4026472 7.07929268,9.65422384 7.07929268,11.1524964 C7.07929268,12.7551727 8.38658537,14.0591825 9.99320488,14.0591825 C11.5998244,14.0591825 12.9069805,12.7551727 12.9069805,11.1524964 C12.9069805,9.65422384 10.5008585,6.4026472 10.2264927,6.03701217 C10.1167122,5.88996107 9.86969756,5.88996107 9.75978049,6.03701217 Z M9.99320488,12.8965012 C9.02908293,12.8965012 8.24494634,12.1142384 8.24494634,11.1524964 C8.24494634,10.9918881 8.37524878,10.8617324 8.53624878,10.8617324 C8.69738537,10.8617324 8.8276878,10.9918881 8.8276878,11.1524964 C8.8276878,11.7937032 9.35043415,12.3151436 9.99320488,12.3151436 C10.1543415,12.3151436 10.2846439,12.445163 10.2846439,12.6059075 C10.2845073,12.7664818 10.1542049,12.8965012 9.99320488,12.8965012 Z" id="Fill-1" fill="#F0F3F6" mask="url(#mask-2)"></path>
            <path d="M16.7411024,8.10741119 C16.1490049,5.94640389 14.4773024,4.24017518 12.3827659,3.42439416 L12.2660537,3.3790219 C12.115878,3.32046715 11.9466146,3.3943163 11.8879171,3.54399027 L11.6754244,4.08542579 C11.616761,4.2349635 11.6909268,4.4037129 11.8411024,4.46209732 L11.9631415,4.50961557 C13.7415512,5.20164477 15.1609122,6.65866667 15.6373561,8.50046715 C15.8406293,9.28657908 15.8735805,10.0929246 15.7545805,10.8706569 L15.0053756,10.8747786 C14.9153317,10.8753236 14.8301024,10.9173577 14.7752976,10.9889586 C14.720322,11.0602871 14.7017805,11.1530073 14.7248634,11.2399027 L15.3648341,13.6502871 C15.394439,13.7617762 15.4876927,13.8453333 15.6020146,13.8631825 C15.6170732,13.8654307 15.6321317,13.8666229 15.6470878,13.8666229 C15.7456683,13.8666229 15.8388878,13.816618 15.8930439,13.7322433 C16.2717268,13.1414501 16.5537073,12.5037178 16.7387122,11.8309684 C16.7387122,11.8309684 16.7884634,11.6168467 16.811922,11.5118637 C16.8348683,11.4103552 16.8797024,11.1854696 16.8804878,11.1740243 C17.0538829,10.1683747 17.0190878,9.12184915 16.7411024,8.10741119 Z" id="Fill-3" fill="#F0F3F6" mask="url(#mask-2)"></path>
            <path d="M14.2764195,14.3914355 C14.175722,14.2659465 13.9920488,14.2457129 13.8661512,14.3460292 L13.7638488,14.4274745 C12.2728488,15.6157032 10.2963902,16.1116302 8.45689268,15.601601 C7.67176585,15.3839027 6.95431707,15.0093431 6.33766829,14.517708 L6.7086,13.8692798 C6.75316098,13.791309 6.75917073,13.6968516 6.72434146,13.6138054 C6.68992195,13.5307932 6.61845366,13.4683893 6.53134634,13.4448175 L4.11590244,12.7917908 C4.00397073,12.7614404 3.88486829,12.8001703 3.81217073,12.8898248 C3.80257561,12.9016788 3.79403902,12.91418 3.78669756,12.9269538 C3.7373561,13.0121119 3.73414634,13.1175036 3.78041463,13.2063747 C4.10470244,13.828438 4.51818049,14.3904818 5.01063902,14.886545 C5.01063902,14.886545 5.17187805,15.0364915 5.25154146,15.1092847 C5.32837073,15.1797956 5.5013561,15.3309684 5.51095122,15.3372019 C6.29846829,15.9895815 7.22588293,16.4828516 8.24679024,16.7503163 C10.421639,17.3201946 12.7410293,16.7311387 14.4974488,15.3321606 L14.5953463,15.2541898 C14.721278,15.1538394 14.7416634,14.9708856 14.6409659,14.8455669 L14.2764195,14.3914355 Z" id="Fill-4" fill="#F0F3F6" mask="url(#mask-2)"></path>
            <path d="M4.26020488,11.1510316 L4.24046829,11.0219659 C3.9528878,9.14167397 4.51005366,7.18889538 5.87310732,5.85698783 C6.45492683,5.28854015 7.13945854,4.85689051 7.87517561,4.57082725 L8.25334634,5.2149635 C8.29896585,5.29238929 8.37804878,5.34481265 8.46768293,5.35625791 C8.5570439,5.36811192 8.6470878,5.33776156 8.7111122,5.2743017 L10.486722,3.51711436 C10.568878,3.43583942 10.5948976,3.31368856 10.5532732,3.20615085 C10.5476732,3.19191241 10.5411512,3.17835523 10.5336732,3.16558151 C10.4844683,3.08055961 10.3942878,3.02507056 10.2939659,3.02054015 C9.59092683,2.98913382 8.89543415,3.06485645 8.21810732,3.24167883 C8.21810732,3.24167883 8.00698049,3.30581995 7.90399512,3.33800973 C7.80421951,3.36904136 7.58626341,3.44275426 7.57601951,3.44793187 C6.61497073,3.80106569 5.7224878,4.35445742 4.97956585,5.10132847 C3.39667805,6.69259367 2.74909268,8.98787835 3.0872439,11.2025012 L3.10602439,11.3258443 C3.13030244,11.4847153 3.27918049,11.593854 3.43857561,11.569635 L4.01558049,11.4821946 C4.17497561,11.4579757 4.28448293,11.3096302 4.26020488,11.1510316 Z" id="Fill-5" fill="#F0F3F6" mask="url(#mask-2)"></path>
        </g>
    </g>
</svg>