<?xml version="1.0" encoding="UTF-8"?>
<svg width="6px" height="12px" viewBox="0 0 6 12" version="1.1" xmlns="http://www.w3.org/2000/svg" xmlns:xlink="http://www.w3.org/1999/xlink">
    <!-- Generator: Sketch 50.2 (55047) - http://www.bohemiancoding.com/sketch -->
    <title></title>
    <desc>Created with Sketch.</desc>
    <defs></defs>
    <g id="Page-1" stroke="none" stroke-width="1" fill="none" fill-rule="evenodd">
        <g id="Icon/Attach" transform="translate(-3.000000, 0.000000)" fill="#3487CB">
            <path d="M8.18954248,2.73202614 L9,2.73202614 L9,8.98039216 C9,9.52941451 8.86710373,10.0348561 8.60130719,10.496732 C8.33551065,10.958608 7.9738585,11.3246174 7.51633987,11.5947712 C7.05882124,11.8649251 6.55991556,12 6.01960784,12 C5.47930013,12 4.97821582,11.8649251 4.51633987,11.5947712 C4.05446392,11.3246174 3.68627588,10.958608 3.41176471,10.496732 C3.13725353,10.0348561 3,9.52941451 3,8.98039216 L3,2.19607843 C3,1.80391961 3.10021686,1.44008882 3.30065359,1.10457516 C3.50109033,0.769061503 3.7690615,0.501090327 4.10457516,0.300653595 C4.44008882,0.100216863 4.80391961,0 5.19607843,0 C5.58823725,0 5.94988941,0.0980382353 6.28104575,0.294117647 C6.61220209,0.490197059 6.87581601,0.758168235 7.07189542,1.09803922 C7.26797484,1.4379102 7.36601307,1.80391961 7.36601307,2.19607843 L7.36601307,7.90849673 C7.36601307,8.15250667 7.3050115,8.37908392 7.18300654,8.58823529 C7.06100157,8.79738667 6.89760451,8.96296235 6.69281046,9.08496732 C6.48801641,9.20697229 6.26361778,9.26797386 6.01960784,9.26797386 C5.77559791,9.26797386 5.54684203,9.20697229 5.33333333,9.08496732 C5.11982464,8.96296235 4.9498917,8.79738667 4.82352941,8.58823529 C4.69716712,8.37908392 4.63398693,8.15250667 4.63398693,7.90849673 L4.63398693,2.73202614 L5.45751634,2.73202614 L5.45751634,7.90849673 C5.45751634,8.06536026 5.51198203,8.19389928 5.62091503,8.29411765 C5.72984804,8.39433601 5.86274431,8.44444444 6.01960784,8.44444444 C6.17647137,8.44444444 6.30501039,8.39433601 6.40522876,8.29411765 C6.50544712,8.19389928 6.55555556,8.06536026 6.55555556,7.90849673 L6.55555556,2.19607843 C6.55555556,1.9520685 6.49455399,1.72331261 6.37254902,1.50980392 C6.25054405,1.29629523 6.08496837,1.12636229 5.87581699,1 C5.66666562,0.873637712 5.44008837,0.810457516 5.19607843,0.810457516 C4.9520685,0.810457516 4.72549124,0.873637712 4.51633987,1 C4.3071885,1.12636229 4.13943418,1.29629523 4.0130719,1.50980392 C3.88670961,1.72331261 3.82352941,1.9520685 3.82352941,2.19607843 L3.82352941,8.98039216 C3.82352941,9.37255098 3.92374627,9.73856039 4.12418301,10.0784314 C4.32461974,10.4183024 4.59259092,10.6884522 4.92810458,10.8888889 C5.26361824,11.0893256 5.62744902,11.1895425 6.01960784,11.1895425 C6.41176667,11.1895425 6.77341882,11.0893256 7.10457516,10.8888889 C7.4357315,10.6884522 7.69934542,10.4183024 7.89542484,10.0784314 C8.09150425,9.73856039 8.18954248,9.37255098 8.18954248,8.98039216 L8.18954248,2.73202614 Z" id=""></path>
        </g>
    </g>
</svg>